<svg version="1.1" id="Layer_1" xmlns="http://www.w3.org/2000/svg" xmlns:xlink="http://www.w3.org/1999/xlink" x="0px" y="0px"
	 width="100%" viewBox="0 0 500 500" enable-background="new 0 0 500 500" xml:space="preserve">
<path fill="#FFFFFF" opacity="1.000000" stroke="none" 
	d="
M282.000000,501.000000 
	C188.000015,501.000000 94.500046,501.000000 1.000050,501.000000 
	C1.000033,334.333405 1.000033,167.666794 1.000017,1.000140 
	C167.666565,1.000093 334.333130,1.000093 500.999756,1.000046 
	C500.999847,167.666519 500.999847,334.333038 500.999939,500.999786 
	C428.166656,501.000000 355.333344,501.000000 282.000000,501.000000 
M207.056290,414.500000 
	C207.056290,369.945862 207.056290,325.391693 207.056290,280.492188 
	C263.748199,280.492188 319.657654,280.492188 376.130768,280.492188 
	C375.536652,279.307037 375.263092,278.581329 374.844513,277.952209 
	C354.565948,247.476807 334.321228,216.978439 313.854095,186.630112 
	C312.782867,185.041687 309.811401,183.954834 307.720093,183.947662 
	C245.911377,183.735260 184.102081,183.688400 122.292870,183.618408 
	C114.191933,183.609222 106.090981,183.617126 97.939339,183.617126 
	C97.939339,280.837219 97.939339,377.223877 97.939339,473.725677 
	C134.390793,473.725677 170.601410,473.725677 207.056290,473.725677 
	C207.056290,454.111755 207.056290,434.805878 207.056290,414.500000 
M297.500000,124.999916 
	C344.467468,124.999916 391.434937,124.999916 439.079285,124.999916 
	C417.728851,92.938957 396.934906,61.825245 376.335266,30.583439 
	C374.550537,27.876678 372.504913,27.958397 370.023071,27.958693 
	C297.073883,27.967390 224.124725,27.964302 151.175552,27.976959 
	C149.786362,27.977200 148.397186,28.144051 146.566055,28.261518 
	C147.161865,29.327612 147.431427,29.896433 147.776505,30.415007 
	C168.139755,61.017433 188.464340,91.645973 209.005249,122.128746 
	C210.078690,123.721733 212.991928,124.865929 215.057541,124.879669 
	C242.204102,125.060371 269.352234,124.999916 297.500000,124.999916 
z"/>
<path fill="#F80808" opacity="1.000000" stroke="none" 
	d="
M207.056290,415.000000 
	C207.056290,434.805878 207.056290,454.111755 207.056290,473.725677 
	C170.601410,473.725677 134.390793,473.725677 97.939339,473.725677 
	C97.939339,377.223877 97.939339,280.837219 97.939339,183.617126 
	C106.090981,183.617126 114.191933,183.609222 122.292870,183.618408 
	C184.102081,183.688400 245.911377,183.735260 307.720093,183.947662 
	C309.811401,183.954834 312.782867,185.041687 313.854095,186.630112 
	C334.321228,216.978439 354.565948,247.476807 374.844513,277.952209 
	C375.263092,278.581329 375.536652,279.307037 376.130768,280.492188 
	C319.657654,280.492188 263.748199,280.492188 207.056290,280.492188 
	C207.056290,325.391693 207.056290,369.945862 207.056290,415.000000 
z"/>
<path fill="#F80707" opacity="1.000000" stroke="none" 
	d="
M297.000000,124.999916 
	C269.352234,124.999916 242.204102,125.060371 215.057541,124.879669 
	C212.991928,124.865929 210.078690,123.721733 209.005249,122.128746 
	C188.464340,91.645973 168.139755,61.017433 147.776505,30.415007 
	C147.431427,29.896433 147.161865,29.327612 146.566055,28.261518 
	C148.397186,28.144051 149.786362,27.977200 151.175552,27.976959 
	C224.124725,27.964302 297.073883,27.967390 370.023071,27.958693 
	C372.504913,27.958397 374.550537,27.876678 376.335266,30.583439 
	C396.934906,61.825245 417.728851,92.938957 439.079285,124.999916 
	C391.434937,124.999916 344.467468,124.999916 297.000000,124.999916 
z"/>
</svg>